<svg width="519.878" height="472.442" viewBox="0 0 137.551 125" xml:space="preserve" xmlns="http://www.w3.org/2000/svg"><path style="fill:#000" d="M86.01 68.439c.282.148.79.44.871.458.091.02.776.693 1.028.958-.06-.08-.082-.146-.187-.258-.515-.548-1.05-.91-1.712-1.158zM79.165 67.035c.14.031.3.07.353.07.102 0 .502.077.846.138-.342-.06-.937-.177-1.088-.195zM89.226 72.19c-.457-.026-.796-.11-.906-.256-.103-.135-.163-.517-.163-1.043 0-.279-.022-.4-.043-.544 0 0 .012.879.046 1.039.034.16.034.365.126.548.09.182.228.194.25.205.024.011.389.057.583.057.022 0 .073-.006.107-.006zM92.964 72.067c-.164-.096-.379-.148-.64-.152.102.04.246.098.448.098.113 0 .15.029.192.054zM96.58 77c-.176-.242-.316-.408-.512-.69a93.395 93.395 0 0 0-1.745-2.44c-.289-.378-.626-.877-.749-1.108a1.924 1.924 0 0 0-.478-.616c.006.003.01.015.019.016.08.012.285.457.285.457l2.569 3.664s.392.463.611.716zM99.618 79.592c-.388.035-.778-.11-1.225-.47.012.015.107.124.11.13.068.113.765.376.799.399.017.011.189-.03.316-.059zM100.48 79.403a.589.589 0 0 0-.342.06c-.092.04-.18.06-.269.083l.05-.01c.216-.022.273-.056.49-.125.05-.016.05-.005.072-.008zM101.135 79.633a1.315 1.315 0 0 1-.354-.113c-.048-.027-.075-.026-.114-.045.003.002 0 .003.005.005.16.068.228.102.365.148.007.002.084.003.098.005zM105.754 79.398c-.368.043-.531.081-1.191.143-1.104.102-1.823.142-2.4.149.445.019.92.047.94.052.031.008 1.487-.189 2.65-.344zM107.182 79.127a1.524 1.524 0 0 1-.31.126c.02-.003.19-.023.193-.025.022-.007.073-.059.117-.101zM108.68 78.18c-.006 0-.051-.01-.056-.01-.01.003-.046.034-.058.038l.114-.028zM113.363 78.333a.748.748 0 0 0-.392.228c-.355.369-.771.351-2.675-.112-.125-.03-.149-.018-.27-.045.925.198 1.947.427 1.982.448.057.034.457 0 .583-.023.125-.023.285-.137.342-.183.057-.046.228-.125.365-.274.019-.02.043-.027.065-.039zM125.797 79.889c.048-.247.063-.483.06-.939-.005-.621-.063-1.113-.14-1.188-.098-.094-1.282-.063-4.536.12a602.06 602.06 0 0 1-6.168.318c-.795.033-1.192.055-1.462.097a.7.7 0 0 1 .124.03l12.038-.554s.073 1.645.084 2.116zM124.759 82.445c.144-.424.315-.844.54-1.297.128-.257.15-.35.226-.52-.255.411-.588.866-.588.866zM123.962 89.124c.153-.505.192-1.166.23-2.487.018-.621.047-1.138.085-1.617l-.003.014zM122.595 91.309c.145-.253.299-.499.588-.869.335-.428.526-.731.668-1.059-.133.23-.5.847-.787 1.018-.12.072-.293.464-.469.91zM121.504 95.148c.005-.027.05-.153.05-.167 0-.124.103-.559.228-.965.118-.382.264-.978.344-1.384-.063.2-.192.587-.192.587l-.43 1.929zM120.533 99.166c-.031-.922.106-1.43.558-2.678.025-.069.022-.08.046-.148-.178.464-.372.963-.378 1.011-.012.08-.263 1.313-.263 1.313l.037.502zM120.6 100.09c-.008-.082-.01-.145-.017-.22l.016.21.002.01zM118.652 104.186c.219-.316.478-.678.73-.928.242-.239.47-.415.695-.546-.33.183-.78.439-.78.439zM116.312 111.575c.107-.04.183-.049.344-.125 1.307-.615 1.511-1.212 1.457-4.264l-.016-.924-.014 2.659s-.162 1.13-.226 1.388c-.065.259-.29.55-.759.856-.411.27-.586.3-.786.41zM113.231 111.673c.284-.164 1.062-.196 1.894-.059.34.056.5.066.67.067-.119-.017-.226-.048-.263-.048-.08 0-.71-.129-1.098-.129-.387 0-.436-.032-.742-.065-.299-.031-.382.164-.46.235zM112.76 113.354a7.79 7.79 0 0 0 .116-.605c.055-.33.117-.48.178-.676-.087.235-.166.472-.166.472s-.096.644-.128.809zM110.644 116.093l.834-.927c.867-.964 1.112-1.252 1.25-1.717-.06.14-.364.606-.364.606l-1.22 1.291s-.388.562-.5.747zM110.581 116.303v-.116l-.01.015c0 .016.005.055.01.101zM109.653 119.75c.06-.081.136-.164.237-.272.116-.124.211-.257.295-.4-.077.133-.399.495-.51.635-.01.013-.012.023-.022.037zM109.339 121.628c.019-.171.042-.324.053-.524.049-.832.071-1.074.238-1.317-.098.139-.2.302-.22.362-.025.073-.009.687-.017.743-.006.038-.032.425-.054.736zM109.158 122.452c.002-.002.016-.006.018-.008.028-.032.055-.177.082-.296-.035.129-.067.265-.1.304zM107.763 125.858c.004-.887.008-1.853.011-2.182l.005-.71.625-.175c.079-.022.101-.053.177-.08-.304.086-.802.223-.826.248-.033.032-.01.69-.01.69s.028.947 0 .98c-.025.03.005.883.018 1.229zM107.258 130.197c-.01-.013-.017-.052-.026-.062-.321-.341-.245-1.053.165-1.55l.357-.431.008-1.884v-.112c-.005.151-.057.734-.057.75 0 .017.028.53.028.645 0 .114.034.542-.006.622-.04.08-.228.285-.228.285s-.302.291-.354.41c-.051.12-.114.298-.12.458-.006.16 0 .325 0 .45 0 .126.137.286.137.286l.096.133zM107.699 132.3a5.65 5.65 0 0 1-.17-.964 5.89 5.89 0 0 0-.132-.801c.018.068.067.425.067.425l.086.674.085.44s.034.133.064.226zM108.154 133.451c-.051-.117-.05-.16-.109-.282a4.962 4.962 0 0 1-.346-.87c.048.15.102.297.102.368 0 .094.243.563.353.784zM108.203 135.354c.084-.375.254-1.058.254-1.115 0-.003-.01-.022-.01-.025a.44.44 0 0 1-.012.108l-.232 1.032zM107.096 139.58c.016-.024.042-.033.056-.065.062-.152.317-1.153.548-2.065l-.33 1.19-.274.94zM105.772 140.049c.022-.014.047-.022.068-.037.203-.14.533-.242.78-.242.037 0 .048-.01.08-.011-.027-.012-.054-.011-.104-.022-.113-.024-.428.105-.574.162-.112.043-.196.11-.25.15zM104.69 140.383c.43-.07.771-.16.992-.285-.033.01-.75.245-.765.245-.005 0-.13.024-.227.04zM101.013 141.43c-.022-.334.075-.554.299-.636.159-.058.969-.162 1.8-.23.205-.017.248-.033.42-.048a63.09 63.09 0 0 1-1.465.141c-.113 0-.767.138-.767.138s-.153.096-.242.16c-.08.058-.065.354-.045.475zM101.53 142.96c-.03-.065-.033-.093-.069-.166-.27-.547-.418-.999-.446-1.338.001.007.001.028.003.033.024.072.056.444.056.444s.259.589.259.613c0 .014.102.219.197.413zM101.888 144.56c0-.032.008-.045.008-.08 0-.066-.013-.098-.014-.156l.006.236zM100.863 149.467c.073-.293.13-.686.164-1.352.064-1.26.1-1.417.467-2.1.077-.143.098-.229.148-.34-.141.24-.342.576-.342.576l-.17.541s-.072.646-.088.678c-.016.033-.065 1.106-.065 1.106s-.067.54-.114.89zM99.153 151.39c.54-.444 1.022-.866 1.333-1.227-.07.074-.155.184-.163.19-.019.012-.758.677-1.17 1.036zM132.37 136.033c-.211-.17-.54-.37-1.27-.795-1.14-.66-1.748-1.264-1.46-1.45a4.847 4.847 0 0 1 1.648-.655c.474-.094.758-.23 1.003-.477.053-.053.105-.093.157-.14-.276.17-.62.386-.643.391-.066.017-1.19.38-1.306.447-.116.066-.81.33-.959.48-.149.148.1.314.215.479.116.165.38.314.496.43.112.111 1.854 1.097 2.118 1.29zM132.569 140.229c0-.036.008-.063.008-.1 0-.512.078-1.237.172-1.612.235-.935.227-1.757-.021-2.103-.081-.113-.157-.2-.246-.286.15.163.367.592.382.732.017.148-.083.959-.149 1.124-.064.162-.113 1.874-.146 2.245zM132.521 145.011c-.264-.631-.457-1.21-.499-1.55-.047-.382.019-.775.244-1.462.207-.63.284-1.11.298-1.708-.036.325-.56 2.373-.56 2.373s.016.612 0 .91c-.017.297.248.793.298.992.007.027.166.332.22.445zM134.732 149.777c.139-.383-.097-.92-1.088-2.57.103.192.3.573.328.616.149.232.76 1.588.76 1.687zM133.002 155.272c.077-.38.124-.883.169-1.766.122-2.412.204-2.709.828-3.015.253-.124.546-.35.65-.504.017-.025.017-.053.031-.079-.073.1-.355.312-.56.429-.23.132-.28.231-.545.43-.265.198-.132.248-.248.545-.113.29-.315 3.79-.325 3.96zM128.026 157.42c.283-.119.757-.215 1.208-.22.69-.007 2.218-.442 2.916-.83.487-.27.703-.472.829-.972l-.314.594s-1.008.53-1.19.612c-.182.083-1.108.38-1.588.48-.48.099-1.306.182-1.538.182-.1 0-.22.07-.323.155zM124.326 162.688c.046-.127.03-.301-.016-.556a7.596 7.596 0 0 1-.108-.936c-.006-.337.025-.37.35-.37.195 0 .738.103 1.206.227 1.012.27 1.747.29 2.21.06.285-.142.506-.526.703-1.187-.072.208-.125.38-.159.448-.082.164-.608.737-.608.737s-1.344.035-1.672-.024c-.327-.058-1.321-.315-1.824-.315-.503 0-.093.035-.234.14-.14.105.082.877.082.877s.059.723.07.9zM120.062 165.482h.083l.167-1.278.166-1.277 1.77.038c1.284.027 1.816.024 2.01-.164-.071.033-.18.03-.247.076-.106.07-3.333-.024-3.555.046-.22.07-.389 2.487-.394 2.559zM119.085 165.346c.182.1.34.136.568.136h.256a3.328 3.328 0 0 0-.67-.115.68.68 0 0 1-.154-.02zM117.233 164.047c.31.078.614.294 1.23.828.181.158.275.212.395.3-.032-.04-.05-.068-.11-.124-.221-.21-1.25-.935-1.285-.958-.01-.006-.187-.035-.23-.046zM115.272 163.606c.043.014.048.021.095.036.627.2 1.307.364 1.51.364.107 0 .202.01.295.03-.135-.032-.212-.056-.598-.119-.348-.056-.868-.194-1.302-.311zM113.188 162.252c.144.123.3.264.446.415.309.319.544.487.846.634-.31-.223-1.192-.986-1.192-.986s-.076-.046-.1-.063zM112.07 162.033c.175-.079.33-.105.474-.104-.04-.011-.087-.032-.121-.035a.384.384 0 0 0-.352.14zM110.206 165.564c.147-1.845.277-2.23.904-2.832.068-.066.131-.11.198-.17-.116.07-.235.136-.335.21-.351.256-.55.63-.585.7-.035.071-.093.679-.117.854-.006.048-.043.755-.065 1.238zM109.05 169.726c.296-.31.535-.583.674-.856-.197.095-.402.454-.674.856zM120.246 102.592c.014-.007.054-.036.058-.037.05-.013.538-.179.538-.179l.07-.607-.09.613s-.239.046-.387.092c-.034.01-.152.087-.246.138.019-.01.038-.01.058-.02zM97.741 152.38c.127-.076.234-.139.379-.215.13-.085.28-.226.42-.327-.308.21-.623.426-.799.542z" transform="translate(-38.81 -66.456)"/><path style="fill:#000" d="M97.352 152.682c-.003.007-.015.023-.019.032.191-.153.42-.313.78-.544l.007-.005c-.145.077-.252.14-.379.215-.042.028-.186.13-.193.131-.019.006-.11.098-.196.172z" transform="translate(-38.81 -66.456)"/><path style="fill:#000" d="M96.87 153.178c.13-.172.279-.317.463-.464l.019-.032c-.142.12-.301.246-.321.281-.006.01-.11.146-.16.215zM93.79 159.858c.005-.024.295-1.444.23-1.542-.066-.1.562-.827.694-.993.132-.165.265-.496.298-.661.033-.165.066-.926.1-1.091.032-.166.032-1.191.032-1.191l.675.045.055-.036a.227.227 0 0 1 .12-.092c.118-.036.358-.306.534-.6.1-.168.184-.298.266-.417-.25.337-.619.83-.619.83l-.315.266h-.694l-.007-2.94s-.05-1.381-.1-2.693c.066 1.622.105 3.553.082 4.988-.045 2.76-.129 3.214-.681 3.709-.34.304-.714 1.393-.714 2.074 0 .145.028.236.044.344zM94.336 160.977c-.029-.056-.058-.13-.085-.18-.261-.491-.453-.907-.458-.917.043.264.13.492.382.85.067.095.105.164.16.247zM97.82 166.37c-.67-.05-1.353-.117-1.353-.117l-.463-.231s-.581-.827-.818-1.214c.143.548.374.912.807 1.288.357.31.537.39.79.35.19-.03.69-.048 1.037-.075zM101.44 166.256c-.191-.07-.393-.135-.508-.135-.135 0-.555.06-.97.127.667-.017 1.24-.02 1.479.008zM105.3 169.635c-.058-.165-.12-.342-.135-.438-.026-.188-.693-.613-1.23-1.049.743.745 1.188 1.22 1.365 1.487zM105.458 170.151l.005-.028c0-.003-.012-.033-.013-.04l.008.068zM143.124 182.078c.098.209 2.63 1.91 2.758 2.147-.121-.195-.41-.446-1.002-.868-.504-.36-1.077-.798-1.274-.975a2.913 2.913 0 0 0-.482-.304zM138.477 180.33c.018.013.046.026.062.04.31.251 3.167 1.108 4.195 1.515a18.217 18.217 0 0 0-2.784-1.039c-.669-.185-1.11-.335-1.473-.516zM136.844 178.88c.09.162.17.315.222.437.129.306.597.543 1.001.762-.23-.16-.449-.342-.694-.594a6.778 6.778 0 0 1-.529-.606zM136.222 177.32c.007.092.02.332.025.36.02.098.081.237.158.392a4.234 4.234 0 0 1-.183-.753zM135.963 171.333a.8.8 0 0 1-.02.01l.051 1.23zM136.416 170.117c-.004.242-.043.429-.029.664 0 .01-.003.018-.003.028.085-.133.082-.31.031-.692zM135.195 167.749l.187.366c.106.191.672.635.898 1.206-.085-.338-.203-.53-.478-.842-.296-.336-.47-.547-.607-.73zM131.907 159.886c.317.456.645 1.05.645 1.05s.866 2.829 1.03 3.67c.163.843.56.82.607 1.053.026.132.338.772.65 1.392-.026-.083-.051-.157-.08-.264-.1-.375-.333-.886-.52-1.135-.493-.66-.68-1.157-1.017-2.705-.326-1.489-.703-2.352-1.315-3.061zM129.127 158.583c.244.04.528.087.736.13.41.087 1.125.438 1.495.622-.564-.475-1.055-.645-2.152-.743-.032-.003-.049-.006-.079-.01zM128.91 159.277l.017-.049-.304-.725.015.002c-.23-.06-.356-.158-.555-.39a1.63 1.63 0 0 1-.268-.41c-.002.013-.014.03-.012.04.033.132.215.314.315.53.099.214.463.247.463.247l.316.761c.003-.003.01-.004.013-.007zM105.95 171.389c.018-.006.7 0 .734 0l.005-.002-.013-.012c-.062-.004-.029-.012-.22.004-.304.025-.444.004-.54-.033.01.015.025.028.035.043zM106.968 172.537c-.006-.011-.02-.045-.024-.05-.063-.062-.445-.649-.844-.922.09.113.17.229.28.332.27.255.446.449.588.64zM111.565 180.637c-.02-.083-.043-.157-.084-.198-.14-.14-.585-1.122-.772-1.332-.135-.152-.68-.704-1.115-1.202.162.207.347.423.522.597.337.337.807.98 1.044 1.43.165.313.288.526.405.705zM113.015 182.588c.003-.024.008-.042.01-.067.047-.491-.094-.678-.211-.912-.095-.19-.405-.316-.706-.395.093.063.189.123.312.19.441.239.502.348.595 1.184zM114.249 184.725a11.07 11.07 0 0 0-.764-.863c.04.048.071.088.121.143.193.211.426.475.643.72zM118.343 186.016c-.083.035-.168.073-.243.106-.041.018-.09.027-.134.041.129-.032.254-.081.377-.147zM119.612 185.166c-.01 0-.03-.003-.04-.002a.334.334 0 0 0-.172.096c.072-.04.145-.074.212-.094zM121.35 186.668c-.228-.26-.935-1.274-.935-1.317 0-.01-.041-.027-.086-.043.074.093.15.22.262.44.195.384.467.697.759.92zM122.065 186.977a5.072 5.072 0 0 1-.426-.123c.096.048.192.095.287.117.04.009.093.003.14.006zM125.648 188.294c-.141-.205-1.064-1.542-1.281-1.868-.136-.204-.292-.195-.469-.125.329.06.646.402 1.169 1.196.202.306.406.582.581.797zM128.114 188.633c-.618.05-1.664.038-1.782.038-.12 0-.42-.15-.516-.2.058.06.143.168.175.184.31.16 1.188.123 2.123-.022zM134.013 187.112c-.238-.133-.504-.254-.666-.289-.327-.07-1.216.024-1.216.024s-.5.45-.989.807a6.41 6.41 0 0 0 .887-.568c.29-.23.42-.26.885-.198.517.068.854.134 1.099.224zM135.19 188.143c-.307-.28-.626-.581-.673-.664l-.007-.007c.016.021.037.036.052.06.123.186.396.446.629.61zM135.823 188.784l-.043-.113-.038-.033c.029.045.056.09.081.146zM135.987 189.211l-.105-.274c.024.068.048.129.075.216.006.02.021.039.03.058zM143.173 190.824c-.366.118-.892.26-1.336.35-.702.14-.75-.024-.75-.024l-.397-.444s-.538-.328-.725-.328c-.187 0-3.671-.889-3.671-.889l-.266-.199c.26.387 1.096.663 2.683.886 1.548.218 1.7.276 1.95.74.167.311.23.338.823.338.565 0 1.192-.174 1.689-.43z" transform="translate(-38.81 -66.456)"/><path style="fill:#000" d="M143.767 190.419c.24-.35.625-.975.642-1.233.023-.351.164-2.877.21-3.228.047-.35.304-.397.491-.841.186-.44.782-.697.793-.86-.005-.01-.014-.022-.02-.032-.129-.238-2.66-1.938-2.759-2.147l-.012-.008c-.007-.011-.057-.033-.083-.048-.083-.043-.2-.092-.295-.137-1.028-.407-3.885-1.264-4.195-1.516-.016-.013-.044-.026-.062-.04a3.265 3.265 0 0 1-.41-.25c-.404-.219-.872-.457-1.001-.762a5.148 5.148 0 0 0-.222-.438 2.847 2.847 0 0 1-.439-.807 1.832 1.832 0 0 1-.158-.393c-.006-.027-.017-.267-.025-.36-.109-.697-.151-1.658-.19-3.184l-.038-1.563-.051-1.23.02-.01-.002-.067.272-.278c.067-.068.116-.122.151-.178 0-.01.003-.018.003-.028-.014-.236.025-.423.029-.665l-.035-.265a5.24 5.24 0 0 0-.101-.53c-.226-.571-.792-1.015-.898-1.206-.018-.032-.135-.266-.187-.367a2.139 2.139 0 0 1-.357-.697c-.31-.62-.623-1.26-.65-1.392-.046-.234-.443-.21-.607-1.053-.164-.842-1.03-3.671-1.03-3.671s-.327-.593-.644-1.05c-.1-.114-.189-.234-.302-.343-.087-.083-.165-.139-.247-.207-.37-.185-1.086-.536-1.495-.622a17.958 17.958 0 0 0-.736-.13 3.106 3.106 0 0 1-.49-.078l-.014-.002.304.725-.017.048c.083-.084.217-.11.544-.126.849-.044 1.688.447 2.287 1.338.437.65.56 1.007 1.063 3.063.136.56.484 1.442.826 2.1.324.625.626 1.289.67 1.476.124.535.462 1.105.875 1.476.705.633.946 1.742.468 2.157-.215.188-.236.347-.232 1.806.006 2.424.186 4.486.483 5.544.227.81.344 1.02.862 1.551.88.904 1.461 1.207 3.49 1.829 1.045.32 2.091.72 2.441.932.958.583 2.398 1.667 2.398 1.805 0 .068-.158.317-.35.55-.522.634-.597.92-.705 2.678-.134 2.187-.429 2.81-1.504 3.18-.736.252-1.181.21-1.416-.135-.283-.416-.739-.571-2.457-.836-1.724-.266-2.302-.46-2.302-.772 0-.42-.258-.923-.511-.997-.14-.041-.523-.35-.85-.688-.54-.557-.658-.623-1.298-.723-1.276-.201-1.686-.155-2.162.247-.916.774-3.45 1.615-4.663 1.547l-.607-.033-.655-.952c-.852-1.238-1.16-1.49-1.82-1.49-.386 0-.61.076-.888.301-.708.573-1.579.21-1.912-.796-.178-.537-.52-.75-1.212-.751-.4-.001-.55.075-1.026.527-.489.463-.644.54-1.243.62-.998.132-1.485-.033-2.297-.779-.38-.347-.69-.723-.69-.834 0-.111-.172-.318-.383-.46-.514-.346-.518-.353-.6-1.186-.088-.915-.184-1.082-.845-1.483-.429-.26-.632-.505-1.022-1.233-.28-.52-.777-1.2-1.164-1.592-.71-.72-1.065-1.303-1.645-2.708a15.921 15.921 0 0 0-.592-1.283c-.132-.237-.24-.5-.24-.586 0-.315-.751-1.658-1.097-1.962l-.24-.211-.005.002c-.035 0-.716-.006-.734 0 .044.061.102.117.15.177.398.272.78.859.844.922.004.004.018.038.024.049.213.287.333.565.447 1.014.113.448.497 1.253 1.829 3.84.068.133.199.32.35.514.435.498.98 1.05 1.115 1.202.187.21.632 1.192.772 1.332.04.04.063.115.084.198.171.263.332.434.543.577.301.08.61.205.706.395.117.234.257.42.21.912-.002.025-.007.043-.01.067.008.072.015.115.024.2.054.514.134.712.446 1.074.237.228.504.548.764.863.09.102.202.224.269.3.276.318.584.569.917.764.224.094.468.2.754.322.487.14 1.014.177 1.579.096.07-.01.134-.028.198-.044.044-.014.093-.023.134-.04l.244-.107c.168-.09.34-.21.55-.39.207-.177.363-.287.507-.366a.332.332 0 0 1 .172-.096c.01-.001.029.002.04.002a.908.908 0 0 1 .265-.043c.223 0 .333.036.451.185.045.016.086.033.086.043 0 .043.708 1.056.936 1.318.062.047.123.101.188.139.034.015.052.029.097.044l.004.002c.126.045.279.086.426.123.382.025.931-.145 1.094-.366a.908.908 0 0 1 .4-.283.707.707 0 0 1 .339-.027c.177-.07.332-.08.468.125.218.326 1.14 1.663 1.282 1.868.073.09.111.118.167.177.097.05.396.2.516.2.118 0 1.165.013 1.782-.038.237-.037.473-.07.71-.122l.187-.044c.36-.085.713-.181 1.013-.294.369-.139.76-.323 1.119-.519.488-.357.989-.807.989-.807s.888-.094 1.216-.024c.162.035.427.156.665.29.233.085.378.201.497.359 0 .002.006.005.007.007.047.083.366.383.674.664.016.011.034.03.05.04.261.173.398.29.502.455l.037.034.043.112c.02.043.04.101.06.153l.105.275c.012.026.023.053.04.079l.266.199s3.484.889 3.672.889c.187 0 .725.327.725.327l.397.445s.047.163.749.023c.444-.089.97-.231 1.336-.35.228-.117.436-.246.585-.393l.01-.012z" transform="translate(-38.81 -66.456)"/><path style="fill:#000" d="m136.053 130.842-.687.213s-1.34.612-1.522.645c-.064.012-.352.18-.676.374.235-.104.474-.202.858-.316.41-.123.882-.325 1.047-.45.165-.125.326-.227.358-.227.031 0 .147.352.256.781l.199.782.729.299c.807.331 1.713 1.203 2.044 1.966.102.235.317.577.476.759.16.182.52.773.802 1.314.283.54.704 1.222.936 1.514l.835 1.05c.227.285.493.785.592 1.11.224.742.733 1.347 1.394 1.654 1.01.47 1.765.25 2.84-.83.57-.572.835-.752 1.254-.849.292-.067.85-.225 1.239-.35a8.5 8.5 0 0 1 1.538-.3l.83-.073.44.517c.416.489 1.917 1.555 2.188 1.555.07 0 .514.194.988.43.474.237 1.248.599 1.72.805.582.254.963.507 1.18.783.72.914.913 1.047 1.522 1.05.912.002 1.1.09 1.345.64.274.614.67.797 1.32.61.566-.162.684-.35 1.215-1.934.37-1.102.711-1.892 1.227-2.838.081-.148.746-.165 5.154-.129 2.784.023 5.07.05 5.079.057.017.015.307 5.41.514 9.552.15 2.984.148 12.166-.003 15.327-.112 2.364-.51 6.945-.654 7.541-.036.152-.299.525-.584.83-.483.516-1.104 1.642-2.932 5.31-.295.593-.712 1.318-.926 1.61-.214.294-.65.9-.97 1.348-.679.954-.957 1.139-2.24 1.485-.75.203-1.31.264-2.608.284-.909.015-1.687.03-1.73.033-.042.005-.223.25-.4.547a15.71 15.71 0 0 1-.358.58c-.019.022-.445.109-.946.192-.501.084-1.049.21-1.217.28-.168.07-.983.928-1.81 1.907a157.53 157.53 0 0 1-1.948 2.273l-.443.492-.427-.28a20.861 20.861 0 0 0-1.003-.602c-.317-.178-1.041-.766-1.61-1.307-.733-.698-1.35-1.157-2.124-1.58-.6-.328-1.298-.766-1.55-.973a3.702 3.702 0 0 0-1.022-.558c-.67-.214-1.916-1.043-1.846-1.229.03-.079.007-.165-.044-.26-.012.164-.608.42-.793.86-.187.445-.444.492-.491.842-.047.351-.187 2.877-.21 3.228-.018.258-.403.884-.642 1.233.615-.616.754-1.103.796-2.785.033-1.369.068-1.58.347-2.129.355-.698.293-.703 1.532.125.39.26.905.529 1.145.596.24.067.693.308 1.004.537.31.229 1.043.715 1.628 1.082.584.366 1.513 1.07 2.065 1.563.551.494 1.242 1.032 1.535 1.196.293.164.71.475.928.691.349.346.433.38.72.283.454-.152.552-.251 2.526-2.57 1.92-2.253 1.968-2.287 3.461-2.468.662-.08 1.082-.378 1.323-.938.133-.308.138-.31 1.421-.33 2.68-.045 4.073-.426 4.968-1.36.853-.89 2.176-3.005 3.092-4.944 1.016-2.15 2.065-3.934 2.512-4.273.363-.274.438-.664.696-3.594.369-4.203.45-7.502.387-15.802-.057-7.571-.18-10.91-.501-13.677l-.074-.642-1.436-.075c-.79-.041-3.268-.058-5.507-.039l-4.072.035-.439.852a16.756 16.756 0 0 0-.814 1.987c-.5 1.514-.746 1.966-1.115 2.055-.348.084-.329.098-.806-.605l-.369-.542-.845-.057c-.464-.031-.867-.082-.894-.113a19.104 19.104 0 0 1-.41-.568c-.433-.616-.703-.854-1.094-.966-.565-.16-3.604-1.614-4.22-2.018a6.145 6.145 0 0 1-1.062-.918l-.442-.511-.974-.008c-.666-.005-1.187.062-1.652.213-.373.12-1.024.31-1.446.42-.691.18-.847.281-1.597 1.03-.777.773-.865.828-1.333.828-1.018 0-1.608-.508-2.023-1.74-.08-.239-.453-.826-.828-1.306-.686-.876-1.407-2.012-2.52-3.975-.669-1.18-1.565-2.082-2.478-2.495-.575-.26-.67-.445-.838-1.622zM136.154 127.476c-.026.175-.629 1.69-.67 1.826-.04.14.24.422.24.422l.33 1.062a4.582 4.582 0 0 0-.296-1.04l-.22-.482.297-.624c.146-.305.24-.7.319-1.164zM136.793 123.761c-.026.118-.351 1.6-.399 1.68-.046.077-.192 1.522-.21 1.834.021-.145.05-.256.066-.423.065-.64.22-1.556.346-2.035.113-.433.17-.763.197-1.056zM134.171 119.012c.23.093.754.346.85.443.117.116.406.703.406.703s.182.703.174.975c-.008.273.306.629.306.629l.232.27-.01-.014c-.399-.46-.47-.631-.54-1.293-.1-.94-.477-1.392-1.418-1.713zM131.423 118.593c.28.04 2.234.308 2.477.334-.11-.031-.19-.069-.315-.098-.346-.082-1.205-.167-2.162-.236zM126.685 117.372c.05.086.17.305.184.322.1.116.513.529.745.661.231.133.636.14.694.14.042 0 1.315.034 2.149.055-.528-.026-1.087-.066-1.517-.068-.617-.003-1.102-.064-1.31-.168-.322-.16-.636-.507-.945-.942zM124.72 112.587l.124.477.851 2.538.302.55a16.166 16.166 0 0 1-.784-2.048 65.954 65.954 0 0 0-.493-1.517zM123.702 103.647a7.402 7.402 0 0 1-.148.858c-.046.152-.62 1.169-.62 1.169s.355 1.064.355 1.263c0 .102.402 1.684.803 3.237-.043-.204-.088-.395-.127-.597-.193-1.008-.496-2.285-.675-2.839l-.324-1.006.379-.658c.294-.511.378-.792.377-1.262 0-.076-.016-.093-.02-.165zM123.62 103.08c.005.032.025.165.049.306-.015-.096-.017-.269-.036-.295-.002-.003-.011-.008-.014-.01zM121.45 101.961l2.057 1.029c-.35-.318-1.321-.8-2.057-1.029z" transform="translate(-38.81 -66.456)"/><path style="fill:#000" d="m120.99 101.792-.078-.023-.07.607s-.488.166-.538.179c-.005 0-.044.03-.057.037.682-.338 1.362-.204 2.35.418.673.424.676.428.62.911-.03.267-.194.678-.364.914-.41.568-.4 1.106.04 2.431.192.578.457 1.7.589 2.492.203 1.219 1.098 4.428 1.562 5.598.3.757 1.19 2.39 1.52 2.791.638.777 1.089.9 3.244.887 2.615-.015 4.329.288 4.891.864.205.21.288.465.345 1.058.07.73.112.822.628 1.375.733.784.785 1.099.385 2.357a8.576 8.576 0 0 0-.38 2.135c-.055.959-.119 1.24-.414 1.807l-.35.67.258.442c.24.412.245.459.068.718-.26.382-.597.57-1.425.797-.931.254-1.33.451-1.83.906-.262.24-.67.446-1.12.57-1.239.338-1.948.79-1.948 1.24 0 .32.657.9 1.913 1.69 1.572.99 1.803 1.381 1.448 2.443-.153.457-.207.934-.19 1.68.02.898-.026 1.188-.341 2.1-.289.838-.349 1.166-.288 1.568.113.747.674 2.15 1.308 3.274l1.006 1.78c.247.438.45.882.452.988.002.107-.249.379-.557.605-.308.226-.632.54-.72.7-.102.186-.194 1.02-.26 2.347-.057 1.133-.136 2.168-.177 2.303-.124.407-2.226 1.186-3.489 1.292-.559.046-1.215.175-1.458.286-.41.188-.437.23-.376.59.04.236.252.583.54.883.63.659.692.945.346 1.615-.392.76-.675.831-1.969.49-.563-.148-1.265-.291-1.561-.318-.762-.07-.886.11-.85 1.227l.03.883-.363.076c-.2.042-1.015.04-1.813-.004l-1.45-.08-.079.301c-.043.166-.13.686-.191 1.155-.174 1.321-.186 1.326-1.156.47-.811-.716-.86-.74-1.63-.82-.437-.045-1.011-.175-1.275-.289a18.622 18.622 0 0 0-.894-.355c-.228-.08-.72-.419-1.095-.75-.376-.332-.825-.656-1-.72-.797-.291-2.46.947-2.796 2.082-.205.695-.42 2.604-.42 3.735 0 .433-.076.96-.169 1.174-.207.478-1.496 1.842-2.066 2.187v.001c-.231.14-.527.25-.657.242-.578-.03-.623-.088-.707-.888l-.081-.777-.738-.569c-.657-.506-1.136-.986-2.273-2.271-.544-.616-1.506-.71-4.686-.46l-1.65.128-.278-.328c-.523-.613-.623-.93-.745-2.378-.105-1.24-.17-1.529-.484-2.133-.2-.384-.444-.786-.542-.894-.4-.436-.192-1.685.406-2.439.524-.66.693-1.175.803-2.45.05-.582.095-.836.18-.956l-.056.037-.674-.046s0 1.025-.033 1.19c-.033.166-.066.927-.1 1.092a1.952 1.952 0 0 1-.297.662c-.132.165-.76.892-.694.992.065.098-.225 1.518-.23 1.542l.003.022c.005.01.197.426.458.916.027.051.056.125.085.182.482.722.58 1.1.656 2.414.035.623.099 1.052.194 1.416.237.387.818 1.214.818 1.214l.463.231s.683.066 1.353.118a38.814 38.814 0 0 1 2.141-.123c.416-.067.836-.127.97-.127.116 0 .318.065.51.135.014.002.06.001.072.003.61.097.667.14 2.27 1.733.073.072.084.09.151.157.538.435 1.204.86 1.231 1.048.014.097.077.273.135.438.08.12.13.218.13.282 0 .056.015.112.02.167 0 .006.013.036.013.04l-.005.028c.045.41.199.818.458 1.195.097.037.236.057.54.033.192-.015.158-.007.22-.004l-.103-.091.314-.063.594-.119c.154-.03.732-.512 1.284-1.07.122-.124.186-.203.285-.306.272-.403.477-.761.674-.857.266-.52.323-1.165.431-2.694.018-.254.035-.4.051-.612.022-.483.06-1.19.066-1.238.023-.175.081-.783.116-.853.035-.07.234-.444.585-.702.1-.073.219-.138.335-.208.273-.24.532-.425.763-.53a.384.384 0 0 1 .352-.139c.034.003.08.024.121.036.079 0 .16-.002.227.023.082.031.24.15.417.3l.1.063s.882.762 1.192.986c.197.095.433.188.792.304.435.117.954.255 1.302.312.386.063.463.086.598.117.02.004.042.007.06.012.044.011.222.04.23.046.036.023 1.065.748 1.287.958.06.056.077.084.11.124.068.05.168.14.227.172a.71.71 0 0 0 .154.02c.242.01.513.074.67.115h.152c.005-.072.175-2.49.394-2.559.222-.07 3.45.024 3.555-.046.067-.045.176-.042.247-.076a.286.286 0 0 0 .069-.112c-.012-.177-.07-.9-.07-.9s-.223-.772-.082-.877c.14-.105-.27-.14.233-.14s1.497.257 1.824.316c.328.058 1.673.023 1.673.023s.525-.573.607-.737c.034-.067.087-.24.16-.448.033-.113.068-.217.1-.348.038-.15.072-.234.125-.294l-.316-.761s-.364-.033-.463-.248c-.1-.215-.281-.397-.314-.53-.002-.01.01-.027.012-.039-.017-.04-.049-.095-.043-.113.02-.06.122-.117.253-.172.104-.085.223-.155.324-.155.231 0 1.058-.083 1.537-.182.48-.1 1.406-.397 1.588-.48.182-.082 1.19-.611 1.19-.611l.314-.595c.009-.036.015-.086.023-.125.01-.171.212-3.67.325-3.96.116-.298-.016-.347.248-.546.265-.198.314-.298.546-.43.204-.116.486-.33.56-.428.024-.042.036-.088.052-.132v-.267c0-.099-.612-1.455-.761-1.686-.028-.044-.225-.425-.328-.617-.062-.104-.093-.162-.162-.275a15.311 15.311 0 0 1-.96-1.92c-.054-.114-.213-.419-.22-.446-.05-.199-.314-.695-.298-.992.017-.298 0-.91 0-.91s.524-2.047.56-2.372c0-.022.004-.04.005-.063.033-.371.082-2.083.147-2.245.066-.165.165-.975.148-1.124-.015-.14-.232-.568-.382-.731a1.76 1.76 0 0 0-.112-.096c-.265-.192-2.007-1.178-2.118-1.29-.116-.115-.38-.264-.496-.43-.116-.165-.364-.33-.215-.48.148-.148.843-.413.959-.479.115-.066 1.24-.43 1.306-.446.022-.005.367-.22.642-.391.2-.177.451-.319.732-.443.324-.194.612-.362.677-.373.181-.034 1.52-.645 1.52-.645l.689-.213-.008-.046a.075.075 0 0 0-.003-.01l-.33-1.063s-.282-.28-.24-.421c.04-.137.642-1.651.668-1.827.011-.064.022-.132.031-.201.018-.312.164-1.757.21-1.834.048-.08.373-1.561.4-1.68.008-.098.002-.185 0-.274a4.675 4.675 0 0 0-.021-.342c-.078-.372-.276-.696-.635-1.113l-.232-.27s-.314-.355-.306-.628c.008-.273-.173-.976-.173-.976s-.29-.587-.405-.703c-.097-.097-.62-.35-.85-.443a5.462 5.462 0 0 0-.272-.084c-.243-.026-2.196-.295-2.478-.334-.33-.024-.63-.027-.965-.044-.834-.021-2.107-.054-2.15-.054-.057 0-.462-.008-.694-.14-.231-.133-.645-.546-.744-.662-.014-.017-.134-.236-.184-.322a7.667 7.667 0 0 1-.688-1.22l-.302-.55-.851-2.538-.124-.477c-.051-.15-.134-.42-.167-.512-.104-.292-.29-1.085-.46-1.9-.402-1.554-.804-3.135-.804-3.238 0-.198-.354-1.263-.354-1.263s.572-1.017.62-1.169c.044-.146.14-.732.146-.858-.006-.114-.019-.176-.032-.26l-.05-.306c-.02-.026-.08-.062-.112-.09l-2.058-1.03c-.112-.034-.239-.083-.334-.103-.057-.012-.087-.041-.125-.065zM120.914 101.752v.002l-.002.015.079.023c-.024-.014-.058-.019-.077-.04zM88.246 142.495c.413.27.953.55 2.095 1.026.779.325 1.761.786 2.183 1.024.422.239 1.073.543 1.446.676.374.133.732.335.795.449.088.16.182 1.45.25 3.057-.052-1.332-.103-2.596-.103-2.732 0-.274-.223-.45-.223-.45l-4.36-2.05zM85.771 141.845c.098.008.1.016.213.025 1.111.087 1.46.16 1.691.293-.094-.064-.177-.118-.203-.137-.064-.049-.5-.13-.824-.194-.31-.062-.77-.006-.877.013zM80.024 140.303c.354.204.799.3 1.653.371 1.114.093 1.225.127 1.957.585.699.438.901.482 2.068.578-.135-.003-.866-.201-.974-.248-.113-.048-.695-.306-.905-.37-.21-.065-.646-.356-1-.453-.356-.097-.76-.064-.76-.064l-.516-.097s-1.279-.232-1.523-.302zM78.776 139.665c.158-.199.406-.127.735.23.079.085.156.144.232.21-.045-.06-.085-.126-.133-.194-.113-.162-.436-.291-.469-.34-.032-.048-.322-.032-.339 0-.002.006-.019.075-.026.094zM78.676 140.767c.016-.45.035-.903.07-1-.043.12-.095.232-.105.37-.012.151.017.411.035.63zM78.485 142.974c.074-.448.122-.913.14-1.393l-.114 1.025s-.009.183-.026.368zM78.161 144.907c.03-.406.095-.758.212-1.277.017-.075.022-.145.037-.218a.803.803 0 0 1-.108.26c-.194.258-.113.694-.146.92-.004.033.006.221.005.315zM79.877 152.572c-.167-.375-.214-.515-.491-1.119-.852-1.858-1.093-2.75-1.187-4.377.006.242.011.52.022.697.016.258.113.92.162 1.162.048.242.5 1.485.5 1.485zM80.616 154.6c-.022-.25-.143-.627-.301-1.03.052.178.137.485.199.596.057.103.078.286.102.434zM80.045 170.745c.085-.222.16-.437.275-.684.288-.616.586-1.346.663-1.621.127-.458.112-.553-.168-1.103-.429-.842-.479-2.048-.304-7.301.06-1.813.082-2.958.098-3.872l-.275 7.617s.114 2.078.068 2.42c-.045.343.594 1.667.594 1.827 0 .16-.388 1.324-.548 1.507-.06.068-.225.605-.403 1.21zM79.21 173.53c.045-.065.109-.133.14-.195.102-.208.239-.762.31-1.24-.105.387-.262.956-.262.956s-.157.374-.187.479zM76.672 175.38c.111-.06.192-.109.325-.178 1.03-.534 1.767-1.088 2.15-1.581-.08.112-.88.849-1.142.914-.197.05-.872.576-1.333.846zM75.224 176.721c.312-.592.603-.875 1.356-1.29-.136.073-.253.125-.31.109-.251-.069-.617.594-.8.73-.108.082-.189.274-.246.451zM63.049 174.661c.226.683.62.875 1.874 1.09 1.373.235 1.475.273 2.167.805.216.166.514.345.751.477l-.615-.41-1.162-.71s-1.614-.387-1.743-.387c-.13 0-.84-.388-.84-.388l-.323-.258zM62.746 173.267l.062.335-.037-.336zM55.596 169.47c.275.137.519.319.754.532l-.231-.288zM52.667 168.51c.131.24.325.325.655.325.545 0 1.533.274 2.242.62l-.414-.193s-.968-.388-1.291-.388c-.323 0-.84-.13-.84-.13zM52.41 166.385l.005.21c.026 1.003.074 1.558.213 1.87l-.125-.753zM40.495 159.73c.23.164.943.428 3.346 1.295 1.717.62 3.411 1.36 5.002 2.116-.934-.485-1.904-1-2.023-1.048-.32-.128-6.199-2.316-6.325-2.364zM40.384 159.423c-.001.014-.025.102-.025.112 0 .034.024.064.039.094zM49.443 126.04l-.167.655c-.249.978-.899 3.362-1.444 5.298-.546 1.936-2.028 7.351-3.294 12.035-1.266 4.683-2.59 9.511-2.941 10.729-.514 1.778-.855 3.092-1.046 3.924l.101-.38 7.476-27.213 1.081-3.956zM49.201 124.274c.035.037.139.122.159.148-.008-.01-.015-.028-.021-.035a27.362 27.362 0 0 1-.138-.113zM42.74 118.579c.156.169.245.28.436.478.493.512.958.951 1.451 1.396-.4-.385-1.623-1.62-1.887-1.874zM41.848 116.904c-.057.157-.083.222-.142.388-.003.007.043.058.045.069.001-.005.06-.277.097-.457zM47.421 108.94c-.072.046-.143.09-.256.143-.281.131-1.042.623-1.69 1.093a8.71 8.71 0 0 0-.854.687c.33-.293 2.344-1.603 2.344-1.603s.255-.17.456-.32zM47.648 108.634a.359.359 0 0 1-.114.215c.03-.027.105-.074.11-.09.01-.028.001-.076.004-.125zM46.844 104.63c.051.064.128.422.17.796.043.375.209 1.192.37 1.817.193.752.288 1.136.265 1.37.004-.108.01-.231.01-.273 0-.064-.8-3.64-.815-3.71zM47.643 103.895a4.48 4.48 0 0 0-.313.207c-.28.199-.423.358-.451.455l.764-.662zM52.95 101.145c-.237.23-.436.405-.819.845-.614.705-1.19 1.338-1.28 1.409-.09.07-.79.164-1.553.209-.243.014-.29.032-.46.045a47.4 47.4 0 0 1 .743-.012c.242 0 1.162-.129 1.275-.145.113-.016 1.218-1.355 1.218-1.355s.648-.72.876-.996zM56.717 99.32c-.419.153-.917.351-1.192.497-.257.136-.6.258-.887.353.087-.016.218-.04.256-.05.167-.045 1.738-.762 1.823-.8zM58.518 97.17c-.036 1.23-.352 1.646-1.587 2.06-.049.017-.1.046-.153.064.02-.006.846-.248.97-.316.125-.068.468-.297.514-.365.045-.069.216-.674.227-.765.008-.057.018-.379.03-.677zM58.86 95.274c-.016.338-.058.503-.138.651-.084.157-.136.446-.162.746.028-.118.094-.405.112-.433.023-.034.092-.274.137-.388.046-.114.058-.296.058-.296zM60.956 87.772c-.032.01-.095.01-.12.02-.332.146-.994 1.071-1.338 1.801l.932-1.426zM61.95 87.623c-.102.017-.205.035-.305.035-.2 0-.398.052-.582.097.114-.003.51-.01.589-.01.049 0 .183-.07.298-.122zM63.889 88.12c-.04-.031-.08-.055-.12-.11-.477-.655-.914-.822-1.349-.538.152-.041.31-.093.442-.093.194 0 .354.183.48.24.125.057.342.411.4.468.02.022.086.027.147.032zM64.784 87.496a2.62 2.62 0 0 1-.5.523c.087-.06.175-.133.199-.194.023-.057.167-.195.3-.33zM73.793 84.162c-.445.117-.882.238-1.46.323-1.396.206-1.743.306-3.122.9-.854.369-1.96.77-2.46.893-1.12.276-1.357.423-1.967 1.218.134-.137.258-.27.304-.333.091-.126.32-.229.537-.446.217-.217.639-.182.707-.228.069-.046 2.877-1.027 2.889-1.05.011-.023 1.427-.594 1.472-.582.046.01 1.736-.32 1.827-.354.048-.018.651-.176 1.273-.341zM75.776 82.396c-.005.04-.015.056-.02.101-.047.441-.16.826-.277.951-.173.183-.508.355-.937.513l.41-.11.696-.501s.105-.621.128-.954zM77.726 71.003c-.099.944-.287 2.059-.607 3.45-.719 3.122-.907 4.39-.862 5.807.034 1.055.014 1.19-.192 1.335-.087.061-.15.163-.2.317.05-.081.109-.15.137-.183.057-.069.171-.126.24-.194.068-.069.228-3.745.228-3.745l.708-3.516.468-2.409z" transform="translate(-38.81 -66.456)"/><path style="fill:#000" d="m77.726 71.003-.08.862-.468 2.409-.708 3.516s-.16 3.676-.228 3.745c-.069.068-.183.125-.24.194-.028.034-.088.102-.136.183a2.933 2.933 0 0 0-.09.484c-.023.333-.128.954-.128.954l-.697.502-.409.11c-.204.075-.494.133-.749.2-.622.165-1.225.323-1.273.34-.091.035-1.781.366-1.827.355-.045-.012-1.461.56-1.472.582-.012.023-2.82 1.004-2.889 1.05-.068.046-.49.011-.707.228-.217.217-.446.32-.537.446-.091.125-.56.548-.605.662-.024.06-.112.134-.198.194-.15.119-.291.181-.396.1-.06-.005-.126-.01-.148-.032-.057-.057-.274-.41-.4-.468-.125-.057-.285-.24-.48-.24-.13 0-.289.052-.44.093-.015.01-.03.01-.044.02-.08.059-.247.101-.427.13-.115.052-.25.123-.298.123-.08 0-.475.007-.589.01-.033.008-.077.008-.107.017l-.526.395-.932 1.426c-.064.136-.138.278-.174.393-.098.312-.27.739-.38.948-.072.133-.11.284-.134.5l.008 1.593c.006.176 0 .203.008.418.037.938.05 1.477.033 1.83l.008.279s-.012.182-.058.296c-.045.114-.114.354-.137.388-.018.028-.085.315-.112.433-.009.094-.026.184-.026.277 0 .089-.013.142-.016.222-.01.3-.021.62-.029.678-.011.091-.182.696-.227.765-.046.068-.389.297-.514.365-.124.068-.95.31-.97.316-.021.007-.04.018-.061.026-.085.038-1.657.755-1.823.8-.038.01-.169.034-.256.05-.076.025-.174.078-.235.094-.356.09-.603.19-.849.34a4.28 4.28 0 0 0-.41.34c-.052.046-.138.146-.194.2-.228.277-.876.997-.876.997s-1.105 1.339-1.218 1.355c-.113.016-1.033.145-1.275.145-.097 0-.43.004-.743.012-.566.042-.939.09-1.195.242l-.764.662c-.007.022-.046.06-.035.073.015.07.816 3.646.816 3.71 0 .042-.007.165-.01.273l-.002.021c-.002.048.005.097-.004.125-.005.016-.08.063-.11.09a.678.678 0 0 1-.113.091c-.201.15-.456.32-.456.32s-2.014 1.31-2.345 1.603a4.092 4.092 0 0 0-.252.251 21.96 21.96 0 0 1-.74 1.195c-.422.865-.932 2.23-1.78 4.595-.037.18-.096.452-.097.457 0 .004.015.021.017.026a31 31 0 0 0 .756.956l.216.236c.264.255 1.487 1.49 1.887 1.874a36.054 36.054 0 0 0 2.26 1.872c1.064.817 1.973 1.592 2.314 1.95l.138.112c.006.007.013.025.02.035.006.006.035.03.039.036l.33.46-.285 1.122-.234 1.092-1.081 3.956-7.476 27.214-.101.38c-.062.267-.158.646-.167.741l.013.206a.31.31 0 0 0 .098.1c.126.048 6.005 2.236 6.325 2.364.119.048 1.09.563 2.023 1.048.927.44 1.869.884 2.628 1.315l.904.512.035 1.417.093 1.327.125.752c.01.022.028.027.038.046l.353.235s.517.13.84.13c.323 0 1.291.387 1.291.387l.414.193.02.007.012.008.523.244.231.288c.426.386.818.91 1.267 1.717.127.23.212.36.311.528l.319.497c.183.23.411.35.679.425.236.025.468.055.71.11.317.01.673.01 1.18.003l1.927-.028.003.013.025-.001.037.336.086.463c.046.246.098.425.155.597l.109.218.323.259s.71.387.84.387c.129 0 1.743.388 1.743.388l1.162.71.615.41c.048.027.113.077.153.097.566.279 4.18.9 5.234.9.538 0 .898-.053 1.177-.214l.009-.004c.279-.163.477-.436.692-.875.043-.087.079-.142.118-.217.057-.177.138-.369.247-.45.182-.137.548-.8.799-.731.057.016.174-.036.31-.109l.092-.05c.46-.27 1.136-.796 1.333-.846.261-.065 1.062-.802 1.141-.914.024-.031.044-.061.065-.091.03-.105.187-.479.187-.479l.263-.956c.002-.012.006-.019.008-.03.059-.41.197-.85.376-1.32.178-.605.344-1.142.403-1.21.16-.183.548-1.347.548-1.507 0-.16-.64-1.484-.594-1.826.046-.343-.068-2.42-.068-2.42l.275-7.618c.005-.282.032-1.097.03-1.195-.002-.143-.012-.254-.023-.37-.024-.147-.045-.33-.102-.432-.062-.112-.147-.419-.199-.597-.083-.211-.289-.663-.438-.998l-.994-2.151s-.452-1.243-.5-1.486a13.426 13.426 0 0 1-.162-1.162c-.01-.177-.016-.455-.022-.697-.01-.186-.028-.34-.036-.55-.026-.746-.032-1.21-.002-1.619.001-.094-.01-.282-.005-.315.033-.226-.048-.662.146-.92a.803.803 0 0 0 .108-.26c.03-.148.05-.293.075-.438.017-.185.026-.367.026-.367l.115-1.026c.005-.151.023-.288.024-.448 0-.182.02-.201.026-.366-.018-.219-.047-.479-.035-.63.01-.138.062-.249.106-.37.002-.008.002-.077.005-.082.007-.01.016-.011.024-.02.007-.02.024-.088.026-.093.017-.033.307-.049.34 0 .032.048.355.177.468.339.047.068.088.133.133.194.028.024.056.055.084.076a.45.45 0 0 0 .117.081c.025.016.055.027.08.041.244.07 1.523.302 1.523.302l.517.097s.403-.033.758.064.791.388 1.001.452c.21.065.792.323.905.372.108.046.839.244.974.247l.07.008c.107-.019.566-.075.876-.013.323.065.76.145.824.194.026.02.109.074.203.137.04.024.12.035.154.063.105.091.283.182.417.27l2.084 1 4.359 2.05s.223.176.223.45c0 .136.051 1.4.102 2.731l.003.077c.05 1.312.1 2.694.1 2.694l.007 2.939h.695l.315-.266s.823-1.09.855-1.147c.033-.056.469-.435.517-.451.036-.012.61-.412.992-.674.219-.158.431-.326.655-.51.412-.358 1.151-1.024 1.17-1.036.008-.005.094-.116.163-.19.107-.124.226-.256.277-.344.041-.072.069-.226.1-.352.047-.35.114-.89.114-.89s.049-1.074.065-1.106c.016-.033.089-.678.089-.678l.17-.542s.2-.335.341-.576c.05-.107.114-.231.144-.328.02-.078.04-.165.053-.277.025-.149.046-.304.05-.51l-.007-.236a3.155 3.155 0 0 0-.038-.425c-.036-.15-.106-.397-.146-.533-.046-.121-.093-.249-.168-.406-.095-.195-.198-.4-.198-.414 0-.024-.258-.613-.258-.613s-.032-.371-.056-.444c-.001-.004-.001-.026-.003-.033l-.002-.026c-.02-.12-.034-.416.045-.474.089-.064.242-.161.242-.161s.654-.137.767-.137c.11 0 1.401-.135 1.465-.142a18.19 18.19 0 0 0 1.158-.133l.226-.04c.016 0 .733-.234.766-.245.03-.016.062-.03.09-.049.054-.039.138-.106.25-.15.146-.057.46-.186.573-.162.051.011.078.01.105.022a.857.857 0 0 0 .214-.031c.061-.042.118-.075.138-.095.015-.016.031-.032.044-.052l.274-.941.33-1.19c.241-.95.345-1.399.502-2.096l.232-1.032c.005-.021.015-.061.013-.108-.006-.104-.154-.445-.293-.762-.11-.221-.353-.691-.353-.785 0-.114-.166-.593-.166-.593l-.085-.44-.086-.674s-.05-.357-.067-.425a1.014 1.014 0 0 0-.14-.338l-.095-.133s-.137-.16-.137-.285c0-.126-.006-.291 0-.451.006-.16.068-.337.12-.457.051-.12.353-.41.353-.41s.188-.206.228-.286c.04-.08.006-.508.006-.622 0-.114-.028-.628-.028-.645 0-.016.052-.599.057-.75l.002-.3c-.013-.346-.043-1.2-.019-1.228.029-.034 0-.981 0-.981s-.022-.658.01-.69c.025-.024.523-.162.827-.248.248-.087.507-.186.577-.259.033-.039.065-.175.1-.303.031-.139.056-.302.08-.52.023-.312.05-.699.055-.737.008-.056-.008-.67.016-.742.02-.06.123-.224.22-.363.009-.011.016-.026.024-.037.01-.014.012-.024.022-.036.111-.14.433-.503.51-.636.179-.304.288-.672.344-1.145.01-.062.01-.072.017-.13a8.4 8.4 0 0 0 .035-.797v-.703c-.005-.046-.01-.085-.01-.1 0-.002.01-.014.01-.015v-.025l.063-.07c.111-.185.5-.747.5-.747l1.22-1.291s.304-.467.363-.606c.01-.031.025-.062.033-.095.033-.165.128-.809.128-.809s.08-.236.166-.472c.032-.105.072-.34.095-.362.016-.016.059-.024.082-.037.079-.07.162-.266.46-.235.308.033.356.065.743.065.388 0 1.017.13 1.098.13.037 0 .144.03.264.047l.044.004a.818.818 0 0 0 .164.002c.087-.011.212-.076.308-.112.2-.11.375-.14.786-.41.468-.307.694-.598.759-.856.064-.258.226-1.388.226-1.388l.014-2.66-.021-1.175.354-.618c.045-.08.155-.186.222-.282l.645-1.035s.45-.256.78-.439l.07-.04c.094-.05.213-.127.246-.138.149-.045.388-.091.388-.091l.092-.628v-.002c-.114-.126-.153-.441-.255-1.493-.009-.093-.01-.145-.018-.23v-.01c-.003-.016-.011-.15-.016-.21-.02-.245-.044-.508-.05-.704l-.038-.502s.252-1.233.263-1.313c.007-.048.2-.547.378-1.011.194-.55.332-1.002.367-1.192l.43-1.93s.13-.387.193-.586c.005-.026.017-.063.022-.087a3.68 3.68 0 0 1 .447-1.236c.175-.446.35-.838.469-.91.286-.172.654-.788.787-1.018.036-.084.083-.165.11-.257l.313-4.09.003-.014c.083-1.049.23-1.834.482-2.575l.177-.95s.334-.456.589-.866c.11-.243.236-.554.272-.74-.011-.471-.084-2.117-.084-2.117l-12.038.554s-.058-.02-.124-.03c-.064.01-.141.025-.188.037-.022.012-.046.018-.065.039-.137.148-.308.228-.365.274-.058.045-.217.16-.343.183-.125.023-.525.057-.582.023-.035-.022-1.057-.25-1.982-.448-.606-.133-1.197-.244-1.346-.224l-.114.028c-.133.048-.401.232-.666.431-.05.035-.078.052-.128.083-.013.01-.021.011-.034.022-.219.18-.38.292-.556.382-.044.043-.095.095-.117.102l-.193.025c-.194.053-.755.103-1.118.145-1.164.155-2.62.352-2.65.344-.021-.005-.497-.034-.94-.052-.432.005-.8-.008-1.029-.057-.014-.002-.091-.003-.098-.005-.137-.046-.205-.08-.365-.149-.004-.001-.002-.002-.005-.004-.065-.03-.133-.064-.186-.072-.023.003-.021-.008-.072.008-.216.069-.274.103-.49.126-.018.002-.03.006-.05.01a1.469 1.469 0 0 1-.251.045c-.127.03-.298.07-.316.058-.034-.022-.73-.285-.799-.399-.003-.005-.098-.114-.11-.13-.489-.393-1.09-1.13-1.813-2.122l-.611-.716-2.569-3.665s-.205-.445-.285-.456c-.009-.001-.013-.013-.02-.017-.039-.032-.087-.053-.13-.078-.042-.025-.08-.054-.193-.054-.202 0-.346-.058-.448-.099-.335-.005-.738.032-1.35.144a7.69 7.69 0 0 1-1.748.131c-.034.001-.085.007-.107.007a3.87 3.87 0 0 1-.582-.057c-.023-.012-.16-.023-.251-.205-.092-.183-.092-.389-.126-.549-.034-.16-.045-1.038-.045-1.038-.008-.052-.002-.152-.015-.195-.004-.023-.014-.043-.023-.066-.027-.073-.113-.16-.168-.23-.252-.266-.937-.94-1.027-.96-.081-.017-.59-.309-.872-.457a5.498 5.498 0 0 0-.62-.194c-1.027-.252-3.557-.746-5.026-1.002-.344-.06-.744-.139-.846-.139-.054 0-.213-.038-.353-.069l-.568-.066-.166.382c-.332.767-.537 1.784-.653 3.253-.01.118-.039.274-.052.398zm1.666-3.418c.208-.02 1.058.12 1.888.311.83.191 2.08.452 2.777.58 2.652.483 3.62 1.245 3.627 2.853 0 .354.035.726.075.827.208.52 1.37.64 3.457.357.61-.083 1.206-.127 1.323-.098.116.03.432.393.703.808.968 1.486 4.619 6.268 4.996 6.544.48.352.92.437 1.61.309.383-.071.67-.056.998.054.37.123.756.13 1.941.036.815-.065 2.099-.159 2.854-.21l1.373-.092.751-.512c.414-.28.84-.541.947-.579.108-.037.82.057 1.584.209 1.88.375 3 .473 3.002.263.005-.426.109-.44 5.553-.727 2.95-.155 5.615-.283 5.923-.283h.561v.913c0 .86-.031.97-.531 1.902-.798 1.485-1.065 2.736-1.183 5.53-.102 2.43-.098 2.412-.939 3.656-.809 1.198-.938 1.526-1.417 3.61-.172.75-.468 1.822-.658 2.384-.562 1.67-.609 2.075-.455 3.97l.139 1.697-.281.168c-.515.307-1.94 1.766-2.174 2.226-.209.41-.231.701-.231 2.952 0 2.902-.05 3.06-1.122 3.622-.552.29-.64.303-1.189.19-1.072-.221-2.241-.099-2.63.276-.094.09-.206.467-.251.84-.118.977-.607 1.868-1.565 2.853l-.832.855-.009 1.174c-.01 1.443-.046 1.568-.575 2.013-.468.394-.595.876-.612 2.32l-.009.745-.64.194c-.352.107-.763.291-.914.41-.271.212-.272.22-.066.593.179.322.19.468.084 1.002-.068.343-.11 1.297-.09 2.119.03 1.39.015 1.514-.218 1.76-.582.615-.65 1.101-.285 2.049.127.33.289.953.359 1.384.07.432.285 1.14.477 1.573.192.434.347.95.344 1.146-.003.196-.259 1.353-.567 2.57l-.56 2.215-.481.062a1.958 1.958 0 0 0-.85.362c-.418.339-.715.392-2.884.524-1.405.085-1.533.112-1.816.384-.25.24-.306.403-.31.9-.002.494.08.748.439 1.367.667 1.15.679 1.641.082 3.343-.398 1.138-.483 1.532-.483 2.248 0 .57-.065.988-.187 1.217-.318.59-1.114 1.333-2.193 2.044-1.052.693-1.775 1.362-2.011 1.86-.073.153-.17.278-.215.278-.15 0-.233-1.02-.236-2.883-.005-2.689-.18-5.088-.399-5.497-.128-.239-.352-.4-.746-.539-.972-.34-5.853-2.682-6.318-3.03-.414-.311-.542-.34-1.888-.427-1.51-.097-1.994-.212-2.39-.569-.4-.359-1.076-.566-1.855-.566-1.086-.001-1.58-.172-2.16-.747-.575-.569-.491-.542-1.182-.375l-.523.127.019 1.49c.015 1.216-.033 1.692-.255 2.57-.352 1.391-.384 3.543-.076 5.053.272 1.329 1.048 3.564 1.537 4.428.706 1.244.822 1.753.726 3.17-.252 3.712-.281 9.449-.054 10.681.07.375.23.845.358 1.045l.233.364-.36.79c-.199.435-.361.834-.361.887 0 .053-.112.297-.248.542-.137.245-.297.78-.356 1.19-.26 1.79-.79 2.49-2.469 3.262-1.097.504-1.686 1.031-2.166 1.942-.159.303-.371.616-.471.696-.407.324-2.523.202-4.605-.265-1.037-.233-1.64-.493-2.34-1.01-.457-.338-.797-.465-1.853-.694-.712-.155-1.399-.344-1.527-.422-.324-.194-.488-.586-.488-1.167 0-.317-.08-.59-.225-.761-.223-.266-.245-.268-2.236-.233l-2.012.035-.28-.433a25.74 25.74 0 0 1-.789-1.372c-.306-.568-.691-1.092-.972-1.324-.72-.593-2.169-1.23-2.927-1.287-.403-.03-.705-.117-.797-.23-.1-.121-.15-.659-.155-1.662-.005-.815-.048-1.577-.095-1.693-.092-.225-2.906-1.76-5.031-2.746-.714-.33-2.148-.893-3.187-1.249-1.039-.356-2.296-.826-2.794-1.043l-.904-.395.067-.414c.038-.228.246-1.053.462-1.833 1.48-5.329 3.004-10.96 5.78-21.345.943-3.528 2.03-7.533 2.416-8.9.386-1.368.687-2.496.67-2.508-.018-.011-1.496-1.201-3.287-2.644-1.836-1.48-3.467-2.888-3.742-3.23a9.714 9.714 0 0 0-.773-.866c-.196-.177-.268-.338-.225-.507.138-.547 1.611-4.371 1.884-4.892.408-.778 1.357-1.605 2.808-2.447 1.454-.843 1.402-.686.884-2.673-.195-.746-.354-1.647-.354-2.001 0-.624.012-.649.383-.778.211-.074.979-.171 1.706-.217l1.323-.082.506-.56c2.072-2.288 2.343-2.542 2.843-2.67.871-.225 1.408-.437 2.798-1.102 1.725-.826 1.889-1.03 1.889-2.345 0-.586.058-1.004.158-1.147.287-.404.314-.77.186-2.5-.118-1.59-.11-1.755.108-2.384.129-.372.298-.904.375-1.182.148-.539.614-1.258 1.089-1.683.182-.162.541-.298.968-.364.374-.059.77-.135.883-.169.145-.044.314.086.586.45.6.805.653.783 2.225-.94.39-.429.558-.516 1.377-.717.514-.126 1.58-.505 2.37-.841 1.194-.508 1.726-.662 3.139-.908.936-.163 1.938-.397 2.226-.52 1.171-.499 1.755-1.22 1.606-1.986-.064-.326-.03-.395.285-.574.277-.158.34-.255.278-.434-.126-.365-.078-2.762.072-3.637.076-.437.376-1.842.668-3.123.292-1.28.584-2.889.648-3.576.263-2.822.478-3.493 1.138-3.554z" transform="translate(-38.81 -66.456)"/></svg>